<svg viewBox="0 0 100 100" fill="none" xmlns="http://www.w3.org/2000/svg">
<circle cx="50" cy="50" r="48" fill="black" stroke="#FEFEFE" stroke-width="4"/>
<path d="M77.6774 23.5807H63.8387V31.0323H77.6774V23.5807Z" fill="#D6C5B4"/>
<path d="M36.1613 23.5807H22.3226V31.0323H36.1613V23.5807Z" fill="#D6C5B4"/>
<path d="M29.2419 69.3549C27.7718 69.3549 26.5806 70.5461 26.5806 72.0161V78.9355H31.9032V72.0161C31.9032 70.5461 30.712 69.3549 29.2419 69.3549Z" fill="#D6C5B4"/>
<path d="M50 69.3549C47.0608 69.3549 44.6774 71.7383 44.6774 74.6774V78.9355H55.3225V74.6774C55.3225 71.7383 52.9391 69.3549 50 69.3549Z" fill="#D6C5B4"/>
<path d="M70.7581 69.3549C69.288 69.3549 68.0968 70.5461 68.0968 72.0161V78.9355H73.4194V72.0161C73.4194 70.5461 72.2282 69.3549 70.7581 69.3549Z" fill="#D6C5B4"/>
<path d="M50 59.7742C53.5275 59.7742 56.3871 56.9146 56.3871 53.3871C56.3871 49.8596 53.5275 47 50 47C46.4725 47 43.6129 49.8596 43.6129 53.3871C43.6129 56.9146 46.4725 59.7742 50 59.7742Z" fill="#D6C5B4"/>
<path d="M27.6451 34.2258H25.5161V36.3549H27.6451V34.2258Z" fill="white"/>
<path d="M32.9677 34.2258H30.8387V36.3549H32.9677V34.2258Z" fill="white"/>
<path d="M47.871 34.2258H45.7419V36.3549H47.871V34.2258Z" fill="white"/>
<path d="M53.1935 34.2258H51.0645V36.3549H53.1935V34.2258Z" fill="white"/>
<path d="M78.7419 18.2581V17.1935C78.7419 15.4328 77.3091 14 75.5484 14C73.7877 14 72.3548 15.4328 72.3548 17.1935V18.2581H58.5161V22.5161V24.6452V25.7097H41.4839V24.6452V22.5161V18.2581H27.6452V17.1935C27.6452 15.4328 26.2123 14 24.4516 14C22.6909 14 21.2581 15.4328 21.2581 17.1935V18.2581H17V23.5806V24.6452V80H83V24.6452V23.5806V18.2581H78.7419ZM74.4839 17.1935C74.4839 16.6059 74.9608 16.129 75.5484 16.129C76.136 16.129 76.6129 16.6059 76.6129 17.1935V18.2581H74.4839V17.1935ZM60.6452 20.3871H72.3548H78.7419H80.871V22.5161H78.7419H76.6129H64.9032H62.7742H60.6452V20.3871ZM76.6129 29.9677H74.4839V24.6452H76.6129V29.9677ZM76.6129 42.7419V44.871H64.9032V42.7419H76.6129ZM76.6129 58.7097H74.4839V53.3871H76.6129V58.7097ZM64.9032 53.3871H67.0323V58.7097H64.9032V53.3871ZM69.1613 53.3871H72.3548V58.7097H69.1613V53.3871ZM68.1511 51.2581C68.398 50.0445 69.4732 49.129 70.7581 49.129C72.0429 49.129 73.1181 50.0445 73.3651 51.2581H68.1511ZM76.6129 51.2581H75.4941C75.2258 48.8693 73.2171 47 70.7581 47C68.299 47 66.2903 48.8693 66.022 51.2581H64.9032V47H70.7581H76.6129V51.2581ZM64.9032 60.8387H67.0323V65.0968H64.9032V60.8387ZM69.1613 60.8387H72.3548V65.0968H69.1613V60.8387ZM74.4839 60.8387H76.6129V65.0968H74.4839V60.8387ZM64.9032 24.6452H67.0323V29.9677H64.9032V24.6452ZM69.1613 24.6452H72.3548V29.9677H69.1613V24.6452ZM41.4839 42.7419H58.5161V44.871H41.4839V42.7419ZM58.5161 58.7097H55.2044C56.5894 57.3556 57.4516 55.4714 57.4516 53.3871C57.4516 50.6747 55.99 48.304 53.8184 47H58.5161V58.7097ZM47.9391 55.8057C48.2318 56.0558 48.5661 56.2517 48.9355 56.3837V58.6011C47.7869 58.3669 46.7873 57.7484 46.0368 56.9032L47.9391 55.8057ZM52.0609 55.8067L53.9632 56.9053C53.2127 57.7506 52.2131 58.369 51.0645 58.6032V56.3858C51.4339 56.2528 51.7682 56.0558 52.0609 55.8067ZM50 52.3226C50.5876 52.3226 51.0645 52.7995 51.0645 53.3871C51.0645 53.9747 50.5876 54.4516 50 54.4516C49.4124 54.4516 48.9355 53.9747 48.9355 53.3871C48.9355 52.7995 49.4124 52.3226 50 52.3226ZM55.3226 53.3871C55.3226 53.9747 55.2044 54.5304 55.0266 55.0595L53.1339 53.9673C53.1701 53.7788 53.1936 53.5862 53.1936 53.3871C53.1936 53.188 53.1701 52.9954 53.135 52.8069L55.0277 51.7147C55.2044 52.2438 55.3226 52.7995 55.3226 53.3871ZM52.0609 50.9675C51.7682 50.7173 51.4339 50.5214 51.0645 50.3894V48.172C52.2131 48.4062 53.2127 49.0247 53.9632 49.8699L52.0609 50.9675ZM48.9355 48.172V50.3894C48.5661 50.5214 48.2318 50.7184 47.9391 50.9675L46.0368 49.8689C46.7873 49.0247 47.7869 48.4062 48.9355 48.172ZM44.6774 53.3871C44.6774 52.7995 44.7956 52.2438 44.9734 51.7147L46.8661 52.8069C46.8299 52.9954 46.8065 53.188 46.8065 53.3871C46.8065 53.5862 46.8299 53.7788 46.865 53.9673L44.9723 55.0595C44.7956 54.5304 44.6774 53.9747 44.6774 53.3871ZM41.4839 47H46.1816C44.01 48.304 42.5484 50.6747 42.5484 53.3871C42.5484 55.4714 43.4106 57.3556 44.7956 58.7097H41.4839V47ZM41.4839 60.8387H43.6129V65.0968H41.4839V60.8387ZM45.7419 60.8387H48.9355V65.0968H45.7419V60.8387ZM51.0645 60.8387H54.2581V65.0968H51.0645V60.8387ZM56.3871 60.8387H58.5161V65.0968H56.3871V60.8387ZM58.5161 27.8387V29.9677H45.7419V32.0968H58.5161V40.6129H53.1936V38.4839H51.0645V40.6129H47.871V38.4839H45.7419V40.6129H41.4839V32.0968H43.6129V29.9677H41.4839V27.8387H58.5161ZM23.3871 17.1935C23.3871 16.6059 23.864 16.129 24.4516 16.129C25.0392 16.129 25.5161 16.6059 25.5161 17.1935V18.2581H23.3871V17.1935ZM19.129 20.3871H21.2581H27.6452H39.3548V22.5161H37.2258H35.0968H23.3871H21.2581H19.129V20.3871ZM35.0968 58.7097H32.9677V53.3871H35.0968V58.7097ZM23.3871 53.3871H25.5161V58.7097H23.3871V53.3871ZM27.6452 53.3871H30.8387V58.7097H27.6452V53.3871ZM26.6349 51.2581C26.8819 50.0445 27.9571 49.129 29.2419 49.129C30.5268 49.129 31.602 50.0445 31.8489 51.2581H26.6349ZM35.0968 51.2581H33.978C33.7097 48.8693 31.701 47 29.2419 47C26.7829 47 24.7742 48.8693 24.5059 51.2581H23.3871V47H29.2419H35.0968V51.2581ZM35.0968 44.871H23.3871V42.7419H35.0968V44.871ZM35.0968 40.6129H32.9677V38.4839H30.8387V40.6129H27.6452V38.4839H25.5161V40.6129H23.3871V32.0968H35.0968V40.6129ZM27.6452 29.9677V24.6452H30.8387V29.9677H27.6452ZM25.5161 29.9677H23.3871V24.6452H25.5161V29.9677ZM23.3871 60.8387H25.5161V65.0968H23.3871V60.8387ZM27.6452 60.8387H30.8387V65.0968H27.6452V60.8387ZM32.9677 60.8387H35.0968V65.0968H32.9677V60.8387ZM35.0968 29.9677H32.9677V24.6452H35.0968V29.9677ZM19.129 77.871V24.6452H21.2581V77.871H19.129ZM23.3871 77.871V67.2258H35.0968V77.871H23.3871ZM37.2258 77.871V24.6452H39.3548V77.871H37.2258ZM41.4839 77.871V67.2258H58.5161V77.871H41.4839ZM60.6452 77.871V24.6452H62.7742V77.871H60.6452ZM64.9032 77.871V67.2258H76.6129V77.871H64.9032ZM80.871 77.871H78.7419V36.3548H76.6129V40.6129H74.4839V38.4839H72.3548V40.6129H69.1613V38.4839H67.0323V40.6129H64.9032V32.0968H76.6129V34.2258H78.7419V24.6452H80.871V77.871Z" fill="white"/>
<path d="M74.4839 34.2258H72.3548V36.3549H74.4839V34.2258Z" fill="white"/>
<path d="M69.1613 34.2258H67.0323V36.3549H69.1613V34.2258Z" fill="white"/>
</svg>
